<svg xmlns="http://www.w3.org/2000/svg" viewBox="0 0 69.35 286.24"><defs><style>.cls-1{fill:none;stroke:#fff;stroke-miterlimit:10;}.cls-2{fill:#4f5a90;}.cls-3{fill:#374370;}.cls-4{fill:#fff;}.cls-5{fill:#d2d2d2;}</style></defs><title>Asset 13</title><g id="Layer_2" data-name="Layer 2"><g id="Layer_1-2" data-name="Layer 1"><path class="cls-1" d="M69.06,285.82s-96.48-66.31-53.87-134S29.39,49,29.39,49"/><circle class="cls-2" cx="25" cy="25" r="25" transform="matrix(1, -0.01, 0.01, 1, -0.2, 0.2)"/><path class="cls-3" d="M50,23.6,38.19,11.82c-.2.06-.69-.16-.9-.12-5,.84-9.93,0-14.82,1.35-2.35.67-2.52,3.53-3.36,5.38-1.18,3.37-1,7.07-2.53,10.27-1,2.19-3.36,3.54-4.21,6.06-.28,1.06-.26,2.38-.58,3.39L23.61,50c.46,0,.92,0,1.39,0A25,25,0,0,0,50,25C50,24.53,50,24.07,50,23.6Z"/><path class="cls-4" d="M35.45,10.69H14.55a3.86,3.86,0,0,0-3.86,3.86v20.9a3.86,3.86,0,0,0,3.86,3.86H24.86l0-10.23H22.22a.63.63,0,0,1-.63-.62v-3.3a.63.63,0,0,1,.63-.63h2.65V21.35c0-3.7,2.26-5.71,5.55-5.71h2.71a.63.63,0,0,1,.63.62V19a.63.63,0,0,1-.63.63H31.46c-1.79,0-2.14.85-2.14,2.1v2.76h3.94a.63.63,0,0,1,.62.7l-.39,3.3a.62.62,0,0,1-.62.55H29.34l0,10.23h6.13a3.86,3.86,0,0,0,3.86-3.86V14.55a3.86,3.86,0,0,0-3.86-3.86Z"/><polygon class="cls-4" points="24.86 39.31 24.88 29.08 24.83 29.08 24.83 39.31 24.86 39.31"/><path class="cls-5" d="M35.45,10.69H24.83V24.53h0V21.35c0-3.7,2.26-5.71,5.55-5.71h2.71a.63.63,0,0,1,.63.62V19a.63.63,0,0,1-.63.63H31.46c-1.79,0-2.14.85-2.14,2.1v2.76h3.94a.63.63,0,0,1,.62.7l-.39,3.3a.62.62,0,0,1-.62.55H29.34l0,10.23h6.13a3.86,3.86,0,0,0,3.86-3.86V14.55A3.86,3.86,0,0,0,35.45,10.69Z"/></g></g></svg>