<svg xmlns="http://www.w3.org/2000/svg" xmlns:xlink="http://www.w3.org/1999/xlink" viewBox="0 0 123.15 241.52"><defs><style>.cls-1{fill:none;stroke:#fff;stroke-miterlimit:10;}.cls-2{fill:url(#linear-gradient);}.cls-3{fill:#fff;}</style><linearGradient id="linear-gradient" x1="-62.44" y1="432.88" x2="-61.42" y2="433.98" gradientTransform="translate(-17025.44 -2593.5) rotate(-90) scale(42.28 39.34)" gradientUnits="userSpaceOnUse"><stop offset="0" stop-color="#fedd57"/><stop offset="0.5" stop-color="#f15843"/><stop offset="1" stop-color="#bb469a"/></linearGradient></defs><title>Asset 11</title><g id="Layer_2" data-name="Layer 2"><g id="Layer_1-2" data-name="Layer 1"><path class="cls-1" d="M123,241s-92.53-29.37-76.89-99.77S30.47,48.89,30.47,48.89"/><path class="cls-2" d="M3.26,3.47C-.66,7.54.15,11.86.15,25c0,10.91-1.91,21.84,8,24.41,3.11.8,30.67.8,33.77,0,4.15-1.07,7.52-4.44,8-10.3.07-.82.07-27.38,0-28.22C49.46,4.64,45.61,1,40.55.31,39.39.14,39.15.09,33.2.08,12.06.09,7.43-.85,3.26,3.47Z"/><path class="cls-3" d="M25.07,6.6C17.53,6.6,10.36,5.93,7.63,13c-1.13,2.9-1,6.66-1,12.06,0,4.73-.15,9.17,1,12.05,2.73,7,10,6.35,17.44,6.35,7.22,0,14.67.75,17.43-6.35,1.14-2.93,1-6.64,1-12,0-7.2.4-11.84-3.09-15.32S32.07,6.6,25.06,6.6ZM23.42,9.92c15.73,0,17.74-1.78,16.63,22.52-.39,8.59-6.93,7.65-15,7.65C10.41,40.09,10,39.67,10,25,10,10.16,11.15,9.92,23.42,9.91ZM34.9,13a2.21,2.21,0,1,0,2.2,2.21A2.21,2.21,0,0,0,34.9,13Zm-9.83,2.58A9.46,9.46,0,1,0,34.52,25a9.46,9.46,0,0,0-9.45-9.46Zm0,3.32c8.11,0,8.12,12.27,0,12.27S17,18.87,25.07,18.87Z"/></g></g></svg>