<svg xmlns="http://www.w3.org/2000/svg" viewBox="0 0 54.27 175.55"><defs><style>.cls-1{fill:none;stroke:#fff;stroke-miterlimit:10;}.cls-2{fill:#0378b8;}</style></defs><title>Asset 10</title><g id="Layer_2" data-name="Layer 2"><g id="Layer_1-2" data-name="Layer 1"><path class="cls-1" d="M29.27,175.17s-47.15-41-20.73-72.73S22,50.66,22,50.66"/><path class="cls-2" d="M49.75,0h-41A4.52,4.52,0,0,0,4.27,4.52v41A4.52,4.52,0,0,0,8.79,50h41a4.53,4.53,0,0,0,4.52-4.52v-41A4.52,4.52,0,0,0,49.75,0Zm-30,43.17a1.32,1.32,0,0,1-1.32,1.32h-5.6a1.31,1.31,0,0,1-1.31-1.32V19.69a1.31,1.31,0,0,1,1.31-1.32h5.6a1.32,1.32,0,0,1,1.32,1.32Zm-4.12-27A5.33,5.33,0,1,1,21,10.83,5.33,5.33,0,0,1,15.62,16.16ZM49,43.28a1.21,1.21,0,0,1-1.21,1.21h-6a1.21,1.21,0,0,1-1.21-1.21v-11c0-1.64.48-7.2-4.3-7.2-3.7,0-4.45,3.81-4.6,5.51V43.28a1.21,1.21,0,0,1-1.21,1.21H24.66a1.21,1.21,0,0,1-1.21-1.21V19.58a1.21,1.21,0,0,1,1.21-1.21h5.82a1.21,1.21,0,0,1,1.21,1.21v2.05C33.06,19.57,35.1,18,39.45,18,49.08,18,49,27,49,31.91V43.28Z"/></g></g></svg>