<svg xmlns="http://www.w3.org/2000/svg" viewBox="0 0 375.23 181.17"><defs><style>.cls-1{fill:none;stroke:#fff;stroke-miterlimit:10;}.cls-2{fill:#0a374d;}.cls-3,.cls-8{fill:#fff;}.cls-4{fill:#c25828;}.cls-5{fill:#1287a8;}.cls-6{fill:#9a2a21;}.cls-7{fill:#bba135;}.cls-8{font-size:24px;font-family:VarelaRound-Regular, Varela Round;}.cls-9{letter-spacing:-0.01em;}</style></defs><title>Asset 7</title><g id="Layer_2" data-name="Layer 2"><g id="Layer_1-2" data-name="Layer 1"><g id="_13-17" data-name="13-17"><path class="cls-1" d="M10.4,137V172.8s5,6.69,8.2,0V146.28h2.06V172.8s5.24,6.69,8.2-.21V137Z"/><path class="cls-1" d="M10.4,135.06H28.86v-12.5A3.68,3.68,0,0,1,30,124.71l5.25-.64s-2-10.57-10-10.14c0,0-4.56,9.25-10.26,0,0,0-7.07-1.94-10.72,10.57l5.13.44s.46-1.94,1-1.73Z"/><path class="cls-1" d="M4.24,125.36l4.9.54S7,130,7.66,143.91c0,0-3.42,3.88-5.36-.44C2.3,143.47,2.3,127.62,4.24,125.36Z"/><path class="cls-1" d="M35.61,125.36l-4.9.54s2.17,4.1,1.48,18c0,0,3.42,3.88,5.36-.44C37.55,143.47,37.55,127.62,35.61,125.36Z"/><ellipse class="cls-1" cx="19.91" cy="103.87" rx="8.56" ry="8.1"/><rect class="cls-2" y="49.56" width="45" height="35" rx="12"/><path class="cls-3" d="M9.19,69.38h1.63V65.45H9.38V64.18a5.41,5.41,0,0,0,2-.74h1.51v5.94h1.37V71H9.19Z"/><path class="cls-3" d="M15.12,70.1l.93-1.29a2.42,2.42,0,0,0,1.56.72c.67,0,1.1-.24,1.1-.72s-.3-.91-1.89-.91V66.46c1.27,0,1.66-.34,1.66-.87s-.28-.69-.8-.69a2,2,0,0,0-1.34.62l-1-1.24a3.7,3.7,0,0,1,2.47-1c1.68,0,2.76.77,2.76,2.15a1.75,1.75,0,0,1-1.23,1.64v0A1.84,1.84,0,0,1,20.78,69c0,1.44-1.37,2.23-3,2.23A3.36,3.36,0,0,1,15.12,70.1Z"/><path class="cls-3" d="M21.88,67.27h3v1.44h-3Z"/><path class="cls-3" d="M26,69.38h1.63V65.45H26.18V64.18a5.41,5.41,0,0,0,2-.74h1.51v5.94h1.37V71H26Z"/><path class="cls-3" d="M35.47,65.16H32.2V63.44h5.45v1.27c-1.75,2.05-1.94,3.37-2.09,6.33H33.5A9.72,9.72,0,0,1,35.47,65.16Z"/></g><g id="_18-29" data-name="18-29"><ellipse class="cls-1" cx="104.64" cy="102.69" rx="8.32" ry="7.63"/><path class="cls-1" d="M105.13,117.85a7.2,7.2,0,0,1-4.57-5.62H96.32s-10,1.52-8.84,26.18l5.71,1s-.52-16.06,2.28-19.1l.11,16.39,18.79-.1V120.31s2.7,4.77,2.29,18.77l5.61-.57s1.88-23.9-9.31-26.28h-3.67S109.39,115.18,105.13,117.85Z"/><path class="cls-1" d="M87.39,139.41l5.7.91v3.23s-2.18,3.81-5.2,0Z"/><path class="cls-1" d="M122.39,139.41l-5.7.91v3.23s2.18,3.81,5.19,0Z"/><path class="cls-1" d="M95.27,137.94h19.1V172s-4.25,6.85-8.41,0l-.31-30.75H104v30.84s-2.91,6.57-8.72,0Z"/><rect class="cls-4" x="82.39" y="49.56" width="45" height="35" rx="12"/><path class="cls-3" d="M92.14,68.06h1.63V64.12H92.33V62.85a5.48,5.48,0,0,0,2-.74h1.51v6H97.2v1.65H92.14Z"/><path class="cls-3" d="M98.33,67.77A2,2,0,0,1,99.58,66v0a2.2,2.2,0,0,1-1-1.8c0-1.34,1.05-2.16,2.54-2.16a2.12,2.12,0,0,1,2.38,2.11,1.93,1.93,0,0,1-1,1.6v0a2.16,2.16,0,0,1,1.3,2c0,1.22-1.11,2.13-2.78,2.13S98.33,69,98.33,67.77Zm3.59-.12c0-.55-.53-.77-1.43-1.15a1.6,1.6,0,0,0-.4,1,.91.91,0,0,0,1,.91A.74.74,0,0,0,101.92,67.65Zm-.09-3.43a.74.74,0,0,0-.77-.84.65.65,0,0,0-.69.74c0,.51.41.77,1.13,1.06A1.71,1.71,0,0,0,101.83,64.22Z"/><path class="cls-3" d="M104.83,66h3v1.43h-3Z"/><path class="cls-3" d="M108.58,68.54c1.8-1.66,3.19-2.93,3.19-4a.89.89,0,0,0-.94-1,1.89,1.89,0,0,0-1.25.72l-1.1-1.1A3.29,3.29,0,0,1,111.12,62a2.43,2.43,0,0,1,2.61,2.5c0,1.22-1.15,2.56-2.18,3.62a12,12,0,0,1,1.27-.1h1.27v1.73h-5.51Z"/><path class="cls-3" d="M115.1,68.9l1.08-1.23a1.71,1.71,0,0,0,1.16.53c.81,0,1.41-.6,1.41-2.42s-.59-2.28-1-2.28-.82.25-.82,1,.41.91.84.91a1.15,1.15,0,0,0,1-.71l.09,1.29a2,2,0,0,1-1.51.86,2.13,2.13,0,0,1-2.3-2.35A2.51,2.51,0,0,1,117.65,62c1.46,0,3,1.06,3,3.82s-1.51,4.07-3.14,4.07A3.34,3.34,0,0,1,115.1,68.9Z"/></g><g id="_30-49" data-name="30-49"><ellipse class="cls-1" cx="187.83" cy="100.49" rx="7.71" ry="7.92"/><path class="cls-1" d="M180.12,110.33h16.45s10.78,3.17,8.28,32.43c0,0-2.89,4.35-5.11,0,0,0,.77-19.77-2.59-23.13V173.8s-3.85,8.3-8.47,0V140.53h-1.83V173.8s-3.76,8.4-8.47.1V119.33s-3.08,3.36-2.31,22.74c0,0-1.83,6.13-5.58.39C170.49,142.46,167.72,112.79,180.12,110.33Z"/><polygon class="cls-1" points="186.37 118.54 189.25 118.54 191.08 132.38 187.83 136.93 184.54 132.77 186.37 118.54"/><path class="cls-1" d="M186.37,114l-.48,2.47a2.43,2.43,0,0,0,3.84,0L189,114Z"/><rect class="cls-5" x="165.22" y="49.56" width="45" height="35" rx="12"/><path class="cls-3" d="M173.13,69.44l.94-1.3a2.37,2.37,0,0,0,1.56.72c.67,0,1.1-.24,1.1-.72s-.3-.91-1.89-.91V65.79c1.27,0,1.65-.33,1.65-.86s-.27-.7-.79-.7a2,2,0,0,0-1.34.63l-1-1.25a3.74,3.74,0,0,1,2.47-1c1.68,0,2.75.76,2.75,2.14a1.75,1.75,0,0,1-1.22,1.65v0a1.86,1.86,0,0,1,1.46,1.83c0,1.44-1.36,2.23-2.95,2.23A3.42,3.42,0,0,1,173.13,69.44Z"/><path class="cls-3" d="M179.78,66.54c0-2.61,1.15-3.91,2.83-3.91s2.83,1.32,2.83,3.91-1.15,4-2.83,4S179.78,69.14,179.78,66.54Zm3.72,0c0-2-.41-2.33-.89-2.33s-.89.31-.89,2.33.41,2.4.89,2.4S183.5,68.55,183.5,66.54Z"/><path class="cls-3" d="M186.38,66.61h3v1.44h-3Z"/><path class="cls-3" d="M193.17,66.25c0-.52.05-1.28.07-1.8h0c-.2.46-.41.91-.63,1.37l-.69,1.29h4v1.56h-6V67.23l2.59-4.46h2.57v7.61h-1.92Z"/><path class="cls-3" d="M196.65,69.56l1.08-1.22a1.74,1.74,0,0,0,1.15.52c.82,0,1.42-.6,1.42-2.42s-.59-2.28-1.06-2.28-.81.25-.81,1.06.41.91.84.91a1.12,1.12,0,0,0,1-.72l.1,1.3a2,2,0,0,1-1.51.86,2.13,2.13,0,0,1-2.3-2.35,2.51,2.51,0,0,1,2.64-2.59c1.46,0,3,1,3,3.81s-1.51,4.08-3.14,4.08A3.34,3.34,0,0,1,196.65,69.56Z"/></g><g id="_50-64" data-name="50-64"><ellipse class="cls-1" cx="271.49" cy="100.2" rx="8.96" ry="9.53"/><path class="cls-1" d="M265.14,108.11s2.7,3.11,6.35,2.68c0,0,4.35-.21,6.37-2.68,0,0,16.67,2.14,13.33,36.62,0,0-2.72,5.37-5.75,0l-.2-9.13s3.43-6.34-2.33-13.75c0,0,8,19.23-11.42,22.45,0,0-18.67-1.72-11.1-22.77a14.22,14.22,0,0,0-2.72,14l.2,9s-2.83,5.69-6-.11C251.91,144.41,248.58,112,265.14,108.11Z"/><path class="cls-1" d="M258.68,137.32s4.21,8.49,12.81,8c0,0,11.13-1.29,12.94-7.52l-1.92,38.67s-5.05,9.13-10.1,0V150.53h-1.72V176.2s-4.54,10-10.3.11Z"/><rect class="cls-6" x="248.21" y="49.56" width="45" height="35" rx="12"/><path class="cls-3" d="M256.51,69.44l.91-1.3a2.38,2.38,0,0,0,1.53.72c.72,0,1.13-.31,1.13-1a.93.93,0,0,0-1-1,1.65,1.65,0,0,0-1.06.36l-.88-.58.19-3.91h4.51V64.5h-2.74L259,65.6a1.82,1.82,0,0,1,.72-.12,2.23,2.23,0,0,1,2.44,2.35,2.68,2.68,0,0,1-2.87,2.69A3.75,3.75,0,0,1,256.51,69.44Z"/><path class="cls-3" d="M263.13,66.54c0-2.61,1.15-3.91,2.83-3.91s2.83,1.32,2.83,3.91-1.15,4-2.83,4S263.13,69.14,263.13,66.54Zm3.72,0c0-2-.41-2.33-.89-2.33s-.89.31-.89,2.33.41,2.39.89,2.39S266.85,68.55,266.85,66.54Z"/><path class="cls-3" d="M269.73,66.61h3v1.44h-3Z"/><path class="cls-3" d="M273.5,66.7c0-2.75,1.51-4.07,3.14-4.07a3.3,3.3,0,0,1,2.38,1l-1.08,1.22a1.71,1.71,0,0,0-1.16-.53c-.8,0-1.41.6-1.41,2.42S276,69,276.43,69s.81-.25.81-1-.41-.91-.84-.91a1.14,1.14,0,0,0-1,.72l-.09-1.3a2,2,0,0,1,1.51-.86,2.13,2.13,0,0,1,2.3,2.35,2.51,2.51,0,0,1-2.64,2.59C275,70.52,273.5,69.46,273.5,66.7Z"/><path class="cls-3" d="M283,66.25c0-.52.05-1.29.07-1.8H283c-.19.46-.4.91-.62,1.37l-.69,1.29h4v1.56h-6V67.23l2.59-4.46h2.57v7.6H283Z"/></g><g id="_65_" data-name="65+"><path class="cls-1" d="M345.33,103.59s.1-8.26,7.34-8.15,7.76,7.12,7.76,7.12-.63,9.7-7.55,10.21C352.88,112.77,347.11,113.39,345.33,103.59Z"/><path class="cls-1" d="M346.9,110s3.35,4.54,6,4c0,0,4.52-.92,5.55-4h3.25s10.91,2.78,8.18,31.16c0,0-1.36,3.92-4.72,0,0,0,1.26-17.75-1.46-21.15l-.32,15s-10.07,5.16-20.87,0l-.42-15.17s-2.51,5.57-1.57,21.15c0,0-2,4.24-4.93.11,0,0-2.62-27,8.39-31.06Z"/><path class="cls-1" d="M342.28,136.09a24,24,0,0,0,20.77.42,10.57,10.57,0,0,1-.63,4.33l-.63,31.06s-3.88,7.95-8.18,0V143.24h-1.36v28.87s-3.57,7.12-8.39.31L343,140.53S342.6,138.57,342.28,136.09Z"/><rect class="cls-7" x="330.23" y="49.56" width="45" height="35" rx="12"/><path class="cls-3" d="M345.78,66.69c0-2.75,1.51-4.07,3.15-4.07a3.26,3.26,0,0,1,2.37,1l-1.08,1.22a1.75,1.75,0,0,0-1.15-.53c-.8,0-1.42.6-1.42,2.42s.59,2.28,1.06,2.28.82-.25.82-1-.41-.91-.84-.91a1.13,1.13,0,0,0-1,.72l-.1-1.3a2,2,0,0,1,1.51-.86,2.13,2.13,0,0,1,2.31,2.35,2.51,2.51,0,0,1-2.64,2.59C347.29,70.51,345.78,69.45,345.78,66.69Z"/><path class="cls-3" d="M352.07,69.43l.91-1.3a2.43,2.43,0,0,0,1.54.72c.72,0,1.13-.31,1.13-1a.94.94,0,0,0-1-1,1.64,1.64,0,0,0-1.05.36l-.89-.58.19-3.91h4.51v1.73h-2.73l-.1,1.1a2.09,2.09,0,0,1,.72-.12,2.24,2.24,0,0,1,2.45,2.35,2.68,2.68,0,0,1-2.88,2.69A3.77,3.77,0,0,1,352.07,69.43Z"/><path class="cls-3" d="M360.78,67.13H358.7V65.69h2.08V63.53h1.49v2.16h2.09v1.44h-2.09v2.16h-1.49Z"/></g><text class="cls-8" transform="translate(170.22 20.38)"><tspan class="cls-9">A</tspan><tspan x="17.57" y="0">GE</tspan></text></g></g></svg>