<svg xmlns="http://www.w3.org/2000/svg" viewBox="0 0 67.56 239.25"><defs><style>.cls-1{fill:none;stroke:#fff;stroke-miterlimit:10;}.cls-2{fill:#f4e204;}.cls-3{fill:#fff;}.cls-4{fill:#010101;}</style></defs><title>Asset 12</title><g id="Layer_2" data-name="Layer 2"><g id="Layer_1-2" data-name="Layer 1"><path class="cls-1" d="M67.31,238.82S-15.95,190.7,14.64,133.73s5.08-83.65,5.08-83.65"/><path class="cls-2" d="M49.61,37.28A12.37,12.37,0,0,1,37.28,49.61H12.72A12.37,12.37,0,0,1,.39,37.28V12.72A12.37,12.37,0,0,1,12.72.39H37.28A12.37,12.37,0,0,1,49.61,12.72Z"/><path class="cls-3" d="M24.88,11a8.56,8.56,0,0,0-5.27,1.74,8.19,8.19,0,0,0-2.56,3.38s-.08,0-.08,0a10.62,10.62,0,0,0-.51,4.1h0a5.23,5.23,0,0,1,.15,2.67.4.4,0,0,0,0,.12,6.93,6.93,0,0,1-1.3,0h0a5,5,0,0,1-1-.35,0,0,0,0,0,0,0,1.24,1.24,0,0,0-1,.19h0a1.1,1.1,0,0,0-.55.83v.08a.88.88,0,0,0,.35.55,2.62,2.62,0,0,1,.35.28v0a4.26,4.26,0,0,0,2.09.82h0c.43.4.83.55.91.95a2.09,2.09,0,0,1-.4,1.65h0a9.86,9.86,0,0,1-3.15,3.62,8.16,8.16,0,0,1-2.32,1.07h0a1.7,1.7,0,0,0-.83.47s0,0,0,.08a.81.81,0,0,0,.11.67.71.71,0,0,0,.36.27h0a9.26,9.26,0,0,0,2.16.75h0a9.45,9.45,0,0,1,1.34.32,1,1,0,0,0,.16.35c.12.39.2.83.31,1.3a.48.48,0,0,0,.28.28.84.84,0,0,0,.51,0h0A8.14,8.14,0,0,1,18.35,37h0a12.49,12.49,0,0,1,3.15,1.73h0a5.32,5.32,0,0,0,2.71.95h0l0,.07c.75,0,1.38,0,2.09,0h0c.59-.39,1.18-.35,1.69-.67a0,0,0,0,1,0,0,38.23,38.23,0,0,1,3.31-2h0A6.15,6.15,0,0,1,32.6,37h0a16.33,16.33,0,0,1,2.79.16h.08a.49.49,0,0,0,.32-.16.26.26,0,0,0,.08-.2c0-.08,0-.16,0-.08s0,0,0-.08a3.47,3.47,0,0,1,.55-1.37.65.65,0,0,1,.59-.16h0a9.51,9.51,0,0,0,2.2-.63h0a2.3,2.3,0,0,0,.91-.59h0A.63.63,0,0,0,40,33h-.2a3.72,3.72,0,0,0-.9-.35h0a8.35,8.35,0,0,1-4-2.91,11.49,11.49,0,0,1-1.38-2.41h0a1.27,1.27,0,0,1,0-1h0A3,3,0,0,1,35,25.39h0a5.07,5.07,0,0,0,1.85-.94h0a1.44,1.44,0,0,0,.2-.36c.08-.15.31-.39,0-.63h0a.66.66,0,0,0-.51-.7H35.43a9.58,9.58,0,0,1-1,.27h0a3.21,3.21,0,0,1-1.1-.12v-.27h0c0-.79-.12-1.34-.12-2.09h0a23.83,23.83,0,0,0,0-3.38h0a7.7,7.7,0,0,0-3.15-4.77,12.71,12.71,0,0,0-3.86-1.46h0C25.79,10.94,25.31,11,24.88,11Z"/><path class="cls-4" d="M37.28,50H12.72A12.74,12.74,0,0,1,0,37.28V12.72A12.74,12.74,0,0,1,12.72,0H37.28A12.74,12.74,0,0,1,50,12.72V37.28A12.74,12.74,0,0,1,37.28,50ZM12.72.79A11.94,11.94,0,0,0,.79,12.72V37.28A11.94,11.94,0,0,0,12.72,49.21H37.28A11.94,11.94,0,0,0,49.21,37.28V12.72A11.94,11.94,0,0,0,37.28.79Z"/><path class="cls-4" d="M36.42,47.64H13.58A11.37,11.37,0,0,1,2.36,36.42V13.58A11.35,11.35,0,0,1,13.58,2.36H36.34a.38.38,0,0,1,.39.4.37.37,0,0,1-.39.39H13.58A10.55,10.55,0,0,0,3.15,13.58V36.42A10.57,10.57,0,0,0,13.58,46.85H36.42A10.57,10.57,0,0,0,46.85,36.42v-11a.4.4,0,0,1,.79,0v11A11.35,11.35,0,0,1,36.42,47.64Z"/><path class="cls-4" d="M44,6.42a.36.36,0,0,1-.28-.12A11.33,11.33,0,0,0,36,3.15a.37.37,0,0,1-.39-.39.38.38,0,0,1,.39-.4,12,12,0,0,1,8.23,3.39.38.38,0,0,1,0,.55A.3.3,0,0,1,44,6.42Z"/><path class="cls-4" d="M47.24,23a.37.37,0,0,1-.39-.39V16.81a.4.4,0,0,1,.79,0v5.83A.38.38,0,0,1,47.24,23Z"/><path class="cls-4" d="M25.2,40.39h-.4a7.66,7.66,0,0,1-4.52-1.73,5.61,5.61,0,0,0-2-1.06,5,5,0,0,0-1.1-.08,7.15,7.15,0,0,0-1.5.16h0a4.68,4.68,0,0,1-.79.12,1.23,1.23,0,0,1-1.22-.91,5.33,5.33,0,0,1-.16-.67l0-.08a1.36,1.36,0,0,1-.08-.39A10.71,10.71,0,0,1,10.43,35a2.37,2.37,0,0,1-1.26-1.1v0a1.71,1.71,0,0,1-.08-.43A1.09,1.09,0,0,1,10,32.24a6.56,6.56,0,0,0,2.52-1,8.5,8.5,0,0,0,1.81-1.57,9.93,9.93,0,0,0,1.5-2.33v0a0,0,0,0,1,0,0,1.16,1.16,0,0,0,.15-.71c-.15-.35-1-.63-1.41-.78l-.12,0-.4-.12a5,5,0,0,1-1.3-.75,1.49,1.49,0,0,1-.55-1.45,1.7,1.7,0,0,1,.87-1.11A2.08,2.08,0,0,1,15,22.17a2.74,2.74,0,0,0,1.22.31h.08a1,1,0,0,0,0-.35v0c-.12-2.13-.32-4.81.43-6.42a9.86,9.86,0,0,1,2-2.84A8.18,8.18,0,0,1,21,11.26a9.68,9.68,0,0,1,3.7-.79h.59a9.69,9.69,0,0,1,3.71.79,9,9,0,0,1,2.4,1.57,9.59,9.59,0,0,1,2,2.84c.74,1.61.55,4.29.43,6.42v.11a.59.59,0,0,1,0,.28h0A6.19,6.19,0,0,0,35,22.17a1.68,1.68,0,0,1,.79-.16,1.88,1.88,0,0,1,.82.16,1.68,1.68,0,0,1,1.22,1.53,1.57,1.57,0,0,1-.47,1.14,3.7,3.7,0,0,1-1.38.83,1.52,1.52,0,0,1-.35.12h-.16c-.43.15-1.26.39-1.41.78-.08.16,0,.4.11.75a.14.14,0,0,0,0,.08c.4.83,2.21,4.25,5.79,4.84a1.09,1.09,0,0,1,.94,1.19,1.68,1.68,0,0,1-.07.43A2.22,2.22,0,0,1,39.61,35a10.71,10.71,0,0,1-2.92.79,1.12,1.12,0,0,0-.08.39l0,.2a1.85,1.85,0,0,1-.15.55,1.16,1.16,0,0,1-1.18.87,7,7,0,0,1-.83-.08,7.58,7.58,0,0,0-1.54-.16,9.64,9.64,0,0,0-1.1.08,5.31,5.31,0,0,0-2,1.06A7.64,7.64,0,0,1,25.2,40.39Zm-8-3.66a6.08,6.08,0,0,1,1.22.12A6.31,6.31,0,0,1,20.71,38a6.64,6.64,0,0,0,4.09,1.62h.36A6.66,6.66,0,0,0,29.21,38a5.65,5.65,0,0,1,2.36-1.18,6.84,6.84,0,0,1,2.92.08,2.47,2.47,0,0,0,.63.08.4.4,0,0,0,.43-.32c0-.19.08-.35.12-.51l0-.2c.08-.35.16-.59.2-.74a.38.38,0,0,1,.31-.24,11.54,11.54,0,0,0,2.91-.75,1.44,1.44,0,0,0,.87-.71.27.27,0,0,0,0-.19.38.38,0,0,0-.28-.36c-4-.67-6-4.56-6.37-5.31,0,0,0,0,0-.08a1.6,1.6,0,0,1-.16-1.38c.27-.71,1.26-1,1.93-1.22l.16,0a.88.88,0,0,1,.27-.08,2.93,2.93,0,0,0,1.1-.67.83.83,0,0,0,.28-.55c0-.31-.28-.63-.75-.79a1.51,1.51,0,0,0-1,0,3.49,3.49,0,0,1-1.42.4h-.08a1.67,1.67,0,0,1-.55-.12.44.44,0,0,1-.24-.39v-.2a1.68,1.68,0,0,1,0-.43V22c.12-2,.28-4.61-.35-6a8.25,8.25,0,0,0-1.81-2.59,7.28,7.28,0,0,0-2.17-1.42,8.36,8.36,0,0,0-3.38-.71h-.59a8.31,8.31,0,0,0-3.39.71,7.23,7.23,0,0,0-2.16,1.42,8.44,8.44,0,0,0-1.82,2.59c-.67,1.46-.51,4-.35,6.07v0c0,.23,0,.47,0,.71a.44.44,0,0,1-.24.39,2.65,2.65,0,0,1-2.2-.28,1.45,1.45,0,0,0-1.1.12.87.87,0,0,0-.48.59.73.73,0,0,0,.32.71,3.87,3.87,0,0,0,1.06.59,2.76,2.76,0,0,0,.32.12l.11,0c.67.2,1.62.51,1.93,1.22a1.54,1.54,0,0,1-.15,1.34v0a10.12,10.12,0,0,1-1.62,2.52A8.19,8.19,0,0,1,10.12,33a.35.35,0,0,0-.28.36.33.33,0,0,0,0,.19h0a1.59,1.59,0,0,0,.87.67A10.38,10.38,0,0,0,13.7,35a.3.3,0,0,1,.28.2,4,4,0,0,1,.23.75l0,.11a4.48,4.48,0,0,0,.16.63.41.41,0,0,0,.47.32,3.4,3.4,0,0,0,.63-.08h0A11.62,11.62,0,0,1,17.17,36.73Z"/></g></g></svg>