<svg xmlns="http://www.w3.org/2000/svg" viewBox="0 0 95.8 159.13"><defs><style>.cls-1{fill:none;stroke:#fff;stroke-miterlimit:10;}.cls-2{fill:#39a4dd;}</style></defs><title>Asset 9</title><g id="Layer_2" data-name="Layer 2"><g id="Layer_1-2" data-name="Layer 1"><path class="cls-1" d="M95.67,158.64S25,140,36.94,95.4,25,36.83,25,36.83"/><path class="cls-2" d="M50,4.74a21.78,21.78,0,0,1-5.91,1.59A10,10,0,0,0,48.6.75a20.54,20.54,0,0,1-6.5,2.44A10.34,10.34,0,0,0,34.62,0a10.2,10.2,0,0,0-10,12.4A29.17,29.17,0,0,1,3.48,1.84,10,10,0,0,0,6.63,15.33,10.24,10.24,0,0,1,2,14.09v.11a10.17,10.17,0,0,0,8.21,9.91,10.09,10.09,0,0,1-2.68.34,9,9,0,0,1-1.95-.18,10.32,10.32,0,0,0,9.58,7A20.78,20.78,0,0,1,2.45,35.61,19.79,19.79,0,0,1,0,35.47,29.21,29.21,0,0,0,15.73,40C34.59,40,44.9,24.62,44.9,11.28c0-.45,0-.88,0-1.3A20.32,20.32,0,0,0,50,4.74Z"/></g></g></svg>