<svg xmlns="http://www.w3.org/2000/svg" xmlns:xlink="http://www.w3.org/1999/xlink" viewBox="0 0 797.38 617.21"><defs><style>.cls-1{fill:#fffeff;}.cls-2{fill:#0a374d;}.cls-3{fill:#bba135;}.cls-4{fill:#c25828;}.cls-5{fill:#1287a8;}.cls-6{fill:#9a2820;}.cls-7{fill:#4f5a90;}.cls-8{fill:#374370;}.cls-17,.cls-9{fill:#fff;}.cls-10{fill:#d2d2d2;}.cls-11{fill:url(#linear-gradient);}.cls-12{fill:none;stroke:#fff;stroke-miterlimit:10;}.cls-13{fill:#39a4dd;}.cls-14{fill:#0378b8;}.cls-15{fill:#f4e204;}.cls-16{fill:#010101;}.cls-17{font-size:24px;font-family:VarelaRound-Regular, Varela Round;}.cls-18{letter-spacing:-0.03em;}.cls-19{letter-spacing:-0.01em;}</style><linearGradient id="linear-gradient" x1="-10" y1="694.95" x2="-9.56" y2="695.43" gradientTransform="translate(-26980.93 -291.77) rotate(-90) scale(42.28 39.34)" gradientUnits="userSpaceOnUse"><stop offset="0" stop-color="#fedd57"/><stop offset="0.5" stop-color="#f15843"/><stop offset="1" stop-color="#bb469a"/></linearGradient></defs><title>Asset 8</title><g id="Layer_2" data-name="Layer 2"><g id="Layer_1-2" data-name="Layer 1"><rect x="2.69" y="2.61" width="792" height="612"/><path class="cls-1" d="M794.69,612.11h-780c-3.38,0-7.29-.56-10.64,0a8.56,8.56,0,0,1-1.34,0l2.5,2.5V11.91c0-2.55.53-5.76,0-8.27a5.06,5.06,0,0,1,0-1l-2.5,2.5h780c3.38,0,7.3.55,10.64,0a8.69,8.69,0,0,1,1.35,0l-2.5-2.5V589.5c0,8-.43,16.09,0,24.07,0,.34,0,.69,0,1,0,3.21,5,3.22,5,0V27.71c0-8,.42-16.09,0-24.07,0-.34,0-.69,0-1a2.53,2.53,0,0,0-2.5-2.5H34.78C24.54.11,14.27-.13,4,.11H2.69a2.53,2.53,0,0,0-2.5,2.5V589.5c0,8-.43,16.09,0,24.07,0,.34,0,.69,0,1a2.53,2.53,0,0,0,2.5,2.5H762.6c10.24,0,20.51.23,30.74,0h1.35C797.91,617.11,797.91,612.11,794.69,612.11Z"/><g id="facebook"><rect class="cls-2" x="400.85" y="73.7" width="51" height="24" rx="12"/><rect class="cls-3" x="681.99" y="73.7" width="41" height="24" rx="12"/><rect class="cls-4" x="453.54" y="73.7" width="81" height="24" rx="12"/><rect class="cls-5" x="536.24" y="73.7" width="78" height="24" rx="12"/><rect class="cls-6" x="615.16" y="73.7" width="65" height="24" rx="12"/><circle class="cls-7" cx="366.08" cy="85.98" r="10.63"/><path class="cls-8" d="M376.69,85.39l-5-5c-.08,0-.29-.07-.38,0-2.15.36-4.22,0-6.3.57-1,.29-1.07,1.5-1.43,2.29-.5,1.43-.43,3-1.07,4.37-.43.93-1.43,1.5-1.79,2.57-.12.45-.11,1-.25,1.44l5,5,.59,0A10.62,10.62,0,0,0,376.7,86C376.7,85.78,376.7,85.58,376.69,85.39Z"/><path class="cls-9" d="M370.52,79.9h-8.88A1.63,1.63,0,0,0,360,81.54v8.88a1.63,1.63,0,0,0,1.64,1.64H366V87.72H364.9a.27.27,0,0,1-.27-.27v-1.4a.27.27,0,0,1,.27-.27H366V84.43A2.22,2.22,0,0,1,368.38,82h1.15a.27.27,0,0,1,.27.27v1.18a.27.27,0,0,1-.27.27h-.71c-.76,0-.91.36-.91.89v1.17h1.68a.26.26,0,0,1,.26.3l-.16,1.4a.27.27,0,0,1-.27.24h-1.5v4.34h2.61a1.63,1.63,0,0,0,1.64-1.64V81.54a1.63,1.63,0,0,0-1.64-1.64Z"/><polygon class="cls-9" points="366.02 92.06 366.02 87.72 366.01 87.72 366.01 92.06 366.02 92.06"/><path class="cls-10" d="M370.52,79.9H366v5.88h0V84.43A2.22,2.22,0,0,1,368.38,82h1.15a.27.27,0,0,1,.27.27v1.18a.27.27,0,0,1-.27.27h-.71c-.76,0-.91.36-.91.89v1.17h1.68a.26.26,0,0,1,.26.3l-.16,1.4a.27.27,0,0,1-.27.24h-1.5v4.34h2.61a1.63,1.63,0,0,0,1.64-1.64V81.54A1.63,1.63,0,0,0,370.52,79.9Z"/><path class="cls-9" d="M415.66,89l.92-1.29a2.38,2.38,0,0,0,1.53.72c.72,0,1.13-.31,1.13-1a.93.93,0,0,0-1-1,1.65,1.65,0,0,0-1.06.36l-.89-.57.2-3.91H421V84h-2.74l-.09,1.11a1.8,1.8,0,0,1,.71-.12,2.24,2.24,0,0,1,2.45,2.35A2.67,2.67,0,0,1,418.42,90,3.75,3.75,0,0,1,415.66,89Z"/><path class="cls-9" d="M422.67,88.23h1.63V84.3h-1.44V83a5.34,5.34,0,0,0,2-.74h1.52v5.94h1.36v1.66h-5.06Z"/><path class="cls-9" d="M428.62,84.42c0-1.56.87-2.47,2-2.47s2,.91,2,2.47-.86,2.49-2,2.49S428.62,86,428.62,84.42Zm2.62,0c0-1-.29-1.34-.6-1.34s-.6.29-.6,1.34.29,1.37.6,1.37S431.24,85.48,431.24,84.42ZM435.1,82h1.15L432.08,90h-1.15Zm-.6,5.59c0-1.56.86-2.47,2-2.47s2,.91,2,2.47-.86,2.49-2,2.49S434.5,89.1,434.5,87.54Zm2.62,0c0-1.06-.29-1.34-.6-1.34s-.6.28-.6,1.34.28,1.37.6,1.37S437.12,88.59,437.12,87.54Z"/><path class="cls-9" d="M483.6,88a2,2,0,0,1,1.25-1.8V86.1a2.2,2.2,0,0,1-1-1.8c0-1.34,1.05-2.16,2.54-2.16a2.12,2.12,0,0,1,2.38,2.11,1.94,1.94,0,0,1-1,1.6v.05a2.15,2.15,0,0,1,1.31,2c0,1.22-1.11,2.13-2.78,2.13S483.6,89.19,483.6,88Zm3.58-.12c0-.56-.52-.77-1.42-1.15a1.6,1.6,0,0,0-.4,1,.91.91,0,0,0,1,.91A.73.73,0,0,0,487.18,87.83Zm-.08-3.43a.74.74,0,0,0-.77-.84.65.65,0,0,0-.69.74c0,.5.4.77,1.12,1.06A1.68,1.68,0,0,0,487.1,84.4Z"/><path class="cls-9" d="M490.37,88.23H492V84.3h-1.44V83a5.48,5.48,0,0,0,2-.74h1.51v5.94h1.37v1.66h-5.06Z"/><path class="cls-9" d="M496.32,84.42c0-1.56.86-2.47,2-2.47s2,.91,2,2.47-.87,2.49-2,2.49S496.32,86,496.32,84.42Zm2.61,0c0-1-.29-1.34-.6-1.34s-.6.29-.6,1.34.29,1.37.6,1.37S498.93,85.48,498.93,84.42ZM502.79,82H504L499.77,90h-1.15Zm-.6,5.59c0-1.56.87-2.47,2-2.47s2,.91,2,2.47-.86,2.49-2,2.49S502.19,89.1,502.19,87.54Zm2.62,0c0-1.06-.29-1.34-.6-1.34s-.6.28-.6,1.34.29,1.37.6,1.37S504.81,88.59,504.81,87.54Z"/><path class="cls-9" d="M568.09,84h-3.26V82.29h5.44v1.27c-1.75,2-1.94,3.37-2.09,6.33h-2.06A9.79,9.79,0,0,1,568.09,84Z"/><path class="cls-9" d="M571.28,88a2,2,0,0,1,1.25-1.8V86.1a2.2,2.2,0,0,1-1-1.8c0-1.34,1.06-2.16,2.54-2.16a2.12,2.12,0,0,1,2.38,2.11,1.93,1.93,0,0,1-1,1.6v.05a2.16,2.16,0,0,1,1.3,2c0,1.22-1.11,2.13-2.78,2.13S571.28,89.19,571.28,88Zm3.59-.12c0-.56-.53-.77-1.43-1.15a1.6,1.6,0,0,0-.4,1,.91.91,0,0,0,1,.91A.74.74,0,0,0,574.87,87.83Zm-.09-3.43c0-.53-.28-.84-.76-.84a.66.66,0,0,0-.7.74c0,.5.41.77,1.13,1.06A1.74,1.74,0,0,0,574.78,84.4Z"/><path class="cls-9" d="M577.52,84.42c0-1.56.87-2.47,2-2.47s2,.91,2,2.47-.86,2.49-2,2.49S577.52,86,577.52,84.42Zm2.62,0c0-1-.29-1.34-.6-1.34s-.6.29-.6,1.34.29,1.37.6,1.37S580.14,85.48,580.14,84.42ZM584,82h1.15L581,90h-1.16Zm-.6,5.59c0-1.56.86-2.47,2-2.47s2,.91,2,2.47-.87,2.49-2,2.49S583.4,89.1,583.4,87.54Zm2.61,0c0-1.06-.28-1.34-.6-1.34s-.6.28-.6,1.34.29,1.37.6,1.37S586,88.59,586,87.54Z"/><path class="cls-9" d="M637.17,86.22c0-2.76,1.51-4.08,3.14-4.08a3.34,3.34,0,0,1,2.38,1l-1.08,1.22a1.74,1.74,0,0,0-1.15-.52c-.81,0-1.42.6-1.42,2.42s.59,2.28,1.06,2.28.81-.25.81-1.06-.4-.91-.84-.91a1.12,1.12,0,0,0-1,.72L639,86a2,2,0,0,1,1.51-.87,2.13,2.13,0,0,1,2.3,2.35A2.51,2.51,0,0,1,640.14,90C638.68,90,637.17,89,637.17,86.22Z"/><path class="cls-9" d="M643.46,89l.91-1.29a2.4,2.4,0,0,0,1.54.72c.71,0,1.12-.31,1.12-1a.93.93,0,0,0-1-1,1.61,1.61,0,0,0-1,.36l-.89-.57.19-3.91h4.51V84H646l-.09,1.11a1.85,1.85,0,0,1,.72-.12,2.24,2.24,0,0,1,2.45,2.35A2.68,2.68,0,0,1,646.22,90,3.71,3.71,0,0,1,643.46,89Z"/><path class="cls-9" d="M649.94,84.42c0-1.56.86-2.47,2-2.47s2,.91,2,2.47-.87,2.49-2,2.49S649.94,86,649.94,84.42Zm2.61,0c0-1-.28-1.34-.6-1.34s-.6.29-.6,1.34.29,1.37.6,1.37S652.55,85.48,652.55,84.42ZM656.42,82h1.15L653.39,90h-1.15Zm-.6,5.59c0-1.56.86-2.47,2-2.47s2,.91,2,2.47S659,90,657.83,90,655.82,89.1,655.82,87.54Zm2.61,0c0-1.06-.29-1.34-.6-1.34s-.6.28-.6,1.34.29,1.37.6,1.37S658.43,88.59,658.43,87.54Z"/><path class="cls-9" d="M696.68,85.75c0-.52.05-1.29.07-1.8h0c-.2.45-.41.91-.63,1.37l-.69,1.29h4v1.56h-6V86.73L696,82.27h2.57v7.6h-1.92Z"/><path class="cls-9" d="M700.48,88.22h1.63V84.28h-1.44V83a5.48,5.48,0,0,0,2-.74h1.51v6h1.37v1.65h-5.06Z"/><path class="cls-9" d="M706.43,84.4c0-1.56.86-2.47,2-2.47s2,.91,2,2.47-.87,2.5-2,2.5S706.43,86,706.43,84.4Zm2.61,0c0-1.05-.29-1.34-.6-1.34s-.6.29-.6,1.34.29,1.37.6,1.37S709,85.46,709,84.4Zm3.86-2.47h1.16L709.88,90h-1.15Zm-.6,5.59c0-1.56.87-2.47,2-2.47s2,.91,2,2.47-.86,2.5-2,2.5S712.3,89.08,712.3,87.52Zm2.62,0c0-1-.29-1.34-.6-1.34s-.6.29-.6,1.34.29,1.37.6,1.37S714.92,88.58,714.92,87.52Z"/></g><g id="instagram"><rect class="cls-2" x="400.57" y="109.91" width="72" height="24" rx="12"/><rect class="cls-3" x="603.98" y="109.91" width="10" height="24" rx="5"/><rect class="cls-4" x="474.41" y="109.91" width="64" height="24" rx="12"/><rect class="cls-5" x="539.91" y="109.91" width="40" height="24" rx="12"/><rect class="cls-6" x="581.21" y="109.91" width="21" height="24" rx="10.5"/><path class="cls-11" d="M357.54,112.46c-1.68,1.74-1.34,3.6-1.34,9.24,0,4.68-.82,9.37,3.46,10.47a100.11,100.11,0,0,0,14.49,0,4.58,4.58,0,0,0,3.42-4.42c0-.35,0-11.75,0-12.11a4.6,4.6,0,0,0-4-4.54,20.33,20.33,0,0,0-3.16-.1c-9.06,0-11.05-.4-12.84,1.46Z"/><path class="cls-9" d="M366.9,113.8c-3.24,0-6.31-.29-7.49,2.73-.48,1.24-.41,2.86-.41,5.17,0,2-.07,3.94.41,5.17,1.17,3,4.27,2.73,7.48,2.73s6.3.32,7.49-2.73c.48-1.25.41-2.84.41-5.17,0-3.09.17-5.08-1.32-6.57s-3.57-1.33-6.58-1.33Zm-.71,1.42c6.75,0,7.61-.76,7.14,9.67-.17,3.69-3,3.28-6.43,3.28-6.3,0-6.48-.18-6.48-6.47s.5-6.47,5.77-6.48Zm4.92,1.32a.95.95,0,1,0,.95.94A.94.94,0,0,0,371.11,116.54Zm-4.21,1.1A4.06,4.06,0,1,0,371,121.7a4.06,4.06,0,0,0-4.05-4.06Zm0,1.43c3.48,0,3.48,5.26,0,5.26S363.41,119.07,366.9,119.07Z"/><path class="cls-9" d="M429.19,120.23h-3.26V118.5h5.44v1.27c-1.75,2-1.94,3.37-2.08,6.34h-2.07A9.83,9.83,0,0,1,429.19,120.23Z"/><path class="cls-9" d="M432.31,124.93c1.8-1.66,3.19-2.93,3.19-4a.89.89,0,0,0-.93-1,1.86,1.86,0,0,0-1.25.72l-1.1-1.1a3.28,3.28,0,0,1,2.63-1.22,2.42,2.42,0,0,1,2.62,2.49c0,1.23-1.15,2.57-2.18,3.62.38,0,.93-.09,1.27-.09h1.27v1.73h-5.52Z"/><path class="cls-9" d="M438.62,120.64c0-1.56.87-2.47,2-2.47s2,.91,2,2.47-.86,2.49-2,2.49S438.62,122.2,438.62,120.64Zm2.62,0c0-1.06-.29-1.35-.6-1.35s-.6.29-.6,1.35.29,1.36.6,1.36S441.24,121.69,441.24,120.64Zm3.86-2.47h1.15l-4.17,8.08h-1.15Zm-.6,5.58c0-1.55.86-2.47,2-2.47s2,.92,2,2.47-.86,2.5-2,2.5S444.5,125.31,444.5,123.75Zm2.62,0c0-1-.29-1.34-.6-1.34s-.6.29-.6,1.34.28,1.37.6,1.37S447.12,124.81,447.12,123.75Z"/><path class="cls-9" d="M497.52,122.44c0-2.76,1.52-4.08,3.15-4.08a3.26,3.26,0,0,1,2.37,1L502,120.54a1.75,1.75,0,0,0-1.15-.53c-.8,0-1.41.6-1.41,2.43s.58,2.27,1.05,2.27.82-.25.82-1-.41-.91-.84-.91a1.14,1.14,0,0,0-1,.72l-.1-1.3a2,2,0,0,1,1.51-.86,2.13,2.13,0,0,1,2.31,2.35,2.51,2.51,0,0,1-2.64,2.59C499,126.25,497.52,125.19,497.52,122.44Z"/><path class="cls-9" d="M507,122c0-.52,0-1.28.07-1.8h-.05c-.19.46-.41.91-.62,1.37l-.7,1.29h4v1.56h-6V123l2.59-4.46H509v7.61H507Z"/><path class="cls-9" d="M510.29,120.64c0-1.56.87-2.47,2-2.47s2,.91,2,2.47-.86,2.49-2,2.49S510.29,122.2,510.29,120.64Zm2.62,0c0-1.06-.29-1.35-.6-1.35s-.6.29-.6,1.35.29,1.36.6,1.36S512.91,121.69,512.91,120.64Zm3.86-2.47h1.15l-4.17,8.08H512.6Zm-.6,5.58c0-1.55.86-2.47,2-2.47s2,.92,2,2.47-.86,2.5-2,2.5S516.17,125.31,516.17,123.75Zm2.61,0c0-1-.28-1.34-.6-1.34s-.6.29-.6,1.34.29,1.37.6,1.37S518.78,124.81,518.78,123.75Z"/><path class="cls-9" d="M554.05,122c0-.52.05-1.28.07-1.8h0c-.19.46-.41.91-.62,1.37l-.7,1.29h4v1.56h-6V123l2.59-4.46H556v7.61h-1.92Z"/><path class="cls-9" d="M557.46,122.27c0-2.61,1.15-3.91,2.83-3.91s2.83,1.32,2.83,3.91-1.15,4-2.83,4S557.46,124.87,557.46,122.27Zm3.71,0c0-2-.4-2.33-.88-2.33s-.89.31-.89,2.33.41,2.4.89,2.4S561.17,124.28,561.17,122.27Z"/><path class="cls-9" d="M563.79,120.64c0-1.56.87-2.47,2-2.47s2,.91,2,2.47-.86,2.49-2,2.49S563.79,122.2,563.79,120.64Zm2.62,0c0-1.06-.29-1.35-.6-1.35s-.6.29-.6,1.35.29,1.36.6,1.36S566.41,121.69,566.41,120.64Zm3.86-2.47h1.15l-4.17,8.08H566.1Zm-.6,5.58c0-1.55.86-2.47,2-2.47s2,.92,2,2.47-.86,2.5-2,2.5S569.67,125.31,569.67,123.75Zm2.61,0c0-1-.28-1.34-.6-1.34s-.6.29-.6,1.34.29,1.37.6,1.37S572.28,124.81,572.28,123.75Z"/><path class="cls-9" d="M637.15,116.47c1.8-1.66,3.19-2.93,3.19-4a.89.89,0,0,0-.94-1,1.89,1.89,0,0,0-1.25.72l-1.1-1.1a3.28,3.28,0,0,1,2.64-1.22,2.42,2.42,0,0,1,2.61,2.49c0,1.22-1.15,2.57-2.18,3.62.39,0,.94-.09,1.27-.09h1.27v1.72h-5.51Z"/><path class="cls-9" d="M644,116h1.63v-3.93h-1.44v-1.28a5.3,5.3,0,0,0,2-.74h1.51V116h1.37v1.65H644Z"/><path class="cls-9" d="M649.94,112.18c0-1.56.86-2.48,2-2.48s2,.92,2,2.48-.87,2.49-2,2.49S649.94,113.73,649.94,112.18Zm2.61,0c0-1.06-.28-1.35-.6-1.35s-.6.29-.6,1.35.29,1.36.6,1.36S652.55,113.23,652.55,112.18Zm3.87-2.48h1.15l-4.18,8.09h-1.15Zm-.6,5.59c0-1.56.86-2.47,2-2.47s2,.91,2,2.47-.87,2.5-2,2.5S655.82,116.85,655.82,115.29Zm2.61,0c0-1.05-.29-1.34-.6-1.34s-.6.29-.6,1.34.29,1.37.6,1.37S658.43,116.35,658.43,115.29Z"/><path class="cls-9" d="M669.28,130.77h1.63v-3.93h-1.44v-1.27a5.41,5.41,0,0,0,2-.75H673v6h1.37v1.66h-5.06Z"/><path class="cls-9" d="M675.37,128.59c0-2.6,1.16-3.91,2.83-3.91S681,126,681,128.59s-1.15,4-2.83,4S675.37,131.19,675.37,128.59Zm3.72,0c0-2-.41-2.33-.89-2.33s-.88.32-.88,2.33.41,2.4.88,2.4S679.09,130.61,679.09,128.59Z"/><path class="cls-9" d="M681.71,127c0-1.56.86-2.47,2-2.47s2,.91,2,2.47-.86,2.49-2,2.49S681.71,128.52,681.71,127Zm2.62,0c0-1.06-.29-1.34-.6-1.34s-.6.28-.6,1.34.28,1.37.6,1.37S684.33,128,684.33,127Zm3.86-2.47h1.15l-4.18,8.08H684Zm-.6,5.59c0-1.56.86-2.47,2-2.47s2,.91,2,2.47-.87,2.49-2,2.49S687.59,131.64,687.59,130.08Zm2.61,0c0-1.06-.29-1.34-.6-1.34s-.6.28-.6,1.34.29,1.37.6,1.37S690.2,131.13,690.2,130.08Z"/><line class="cls-12" x1="594.51" y1="115.21" x2="603.58" y2="106.14"/><line class="cls-12" x1="636.72" y1="117.64" x2="603.58" y2="106.14"/><line class="cls-12" x1="613.98" y1="128.91" x2="663.52" y2="128.91"/></g><g id="twitter"><rect class="cls-2" x="401.82" y="145.89" width="32" height="24" rx="12"/><rect class="cls-3" x="528.24" y="145.89" width="8" height="24" rx="4"/><rect class="cls-4" x="435.41" y="145.89" width="40" height="24" rx="12"/><rect class="cls-5" x="476.49" y="145.89" width="27" height="24" rx="12"/><rect class="cls-6" x="506.41" y="145.89" width="19" height="24" rx="9.5"/><path class="cls-13" d="M383.19,149.41a11.79,11.79,0,0,1-3.23.88,5.52,5.52,0,0,0,2.46-3.1,11.23,11.23,0,0,1-3.55,1.36,5.6,5.6,0,0,0-9.7,3.83,5.29,5.29,0,0,0,.13,1.28,15.88,15.88,0,0,1-11.56-5.86,5.6,5.6,0,0,0,1.72,7.49,5.56,5.56,0,0,1-2.53-.69v.06a5.62,5.62,0,0,0,4.49,5.51,5.44,5.44,0,0,1-1.47.19,4.65,4.65,0,0,1-1.06-.1,5.66,5.66,0,0,0,5.24,3.91,11.29,11.29,0,0,1-7,2.39,9.84,9.84,0,0,1-1.34-.08A16,16,0,0,0,380.4,153c0-.25,0-.49,0-.72A11.44,11.44,0,0,0,383.19,149.41Z"/><path class="cls-9" d="M406.89,161.14l.94-1.29a2.4,2.4,0,0,0,1.56.72c.67,0,1.1-.24,1.1-.72s-.3-.91-1.9-.91V157.5c1.27,0,1.66-.34,1.66-.87s-.28-.69-.79-.69a2,2,0,0,0-1.35.62l-1-1.25a3.78,3.78,0,0,1,2.47-1c1.68,0,2.76.77,2.76,2.15a1.76,1.76,0,0,1-1.22,1.64v0a1.84,1.84,0,0,1,1.46,1.82c0,1.44-1.37,2.23-2.95,2.23A3.42,3.42,0,0,1,406.89,161.14Z"/><path class="cls-9" d="M413.56,160.9c1.8-1.65,3.19-2.92,3.19-4a.88.88,0,0,0-.93-1,1.86,1.86,0,0,0-1.25.72l-1.1-1.11a3.28,3.28,0,0,1,2.63-1.22,2.42,2.42,0,0,1,2.62,2.49c0,1.23-1.15,2.57-2.18,3.63a11.58,11.58,0,0,1,1.27-.1h1.27v1.73h-5.52Z"/><path class="cls-9" d="M419.87,156.61c0-1.56.87-2.47,2-2.47s2,.91,2,2.47-.86,2.49-2,2.49S419.87,158.17,419.87,156.61Zm2.62,0c0-1.06-.29-1.35-.6-1.35s-.6.29-.6,1.35.29,1.37.6,1.37S422.49,157.66,422.49,156.61Zm3.86-2.47h1.15l-4.17,8.08h-1.15Zm-.6,5.59c0-1.56.86-2.47,2-2.47s2,.91,2,2.47-.86,2.49-2,2.49S425.75,161.29,425.75,159.73Zm2.62,0c0-1.06-.29-1.35-.6-1.35s-.6.29-.6,1.35.28,1.36.6,1.36S428.37,160.78,428.37,159.73Z"/><path class="cls-9" d="M450.86,157.31c0-.52.05-1.28.07-1.8h0c-.2.46-.41.91-.63,1.37l-.69,1.29h4v1.56h-6v-1.44l2.59-4.46h2.57v7.61h-1.92Z"/><path class="cls-9" d="M454.27,157.6c0-2.6,1.15-3.91,2.83-3.91s2.83,1.32,2.83,3.91-1.15,4-2.83,4S454.27,160.2,454.27,157.6Zm3.72,0c0-2-.41-2.33-.89-2.33s-.89.31-.89,2.33.41,2.4.89,2.4S458,159.61,458,157.6Z"/><path class="cls-9" d="M460.61,156c0-1.56.86-2.47,2-2.47s2,.91,2,2.47-.87,2.49-2,2.49S460.61,157.53,460.61,156Zm2.61,0c0-1.06-.29-1.35-.6-1.35s-.6.29-.6,1.35.29,1.36.6,1.36S463.22,157,463.22,156Zm3.86-2.47h1.16l-4.18,8.08h-1.15Zm-.6,5.59c0-1.56.87-2.47,2-2.47s2,.91,2,2.47-.86,2.49-2,2.49S466.48,160.64,466.48,159.09Zm2.62,0c0-1.06-.29-1.35-.6-1.35s-.6.29-.6,1.35.29,1.36.6,1.36S469.1,160.14,469.1,159.09Z"/><path class="cls-9" d="M478.75,160.26c1.8-1.65,3.19-2.93,3.19-4a.88.88,0,0,0-.93-1,1.86,1.86,0,0,0-1.25.72l-1.11-1.11a3.31,3.31,0,0,1,2.64-1.22,2.42,2.42,0,0,1,2.62,2.49c0,1.23-1.15,2.57-2.18,3.63a11.58,11.58,0,0,1,1.27-.1h1.27v1.73h-5.52Z"/><path class="cls-9" d="M488.59,155.56h-3.26v-1.73h5.44v1.27c-1.75,2.05-1.94,3.37-2.09,6.34h-2.06A9.77,9.77,0,0,1,488.59,155.56Z"/><path class="cls-9" d="M491.54,156c0-1.56.87-2.47,2-2.47s2,.91,2,2.47-.86,2.49-2,2.49S491.54,157.53,491.54,156Zm2.62,0c0-1.06-.29-1.35-.6-1.35s-.6.29-.6,1.35.29,1.36.6,1.36S494.16,157,494.16,156ZM498,153.5h1.15L495,161.58h-1.15Zm-.6,5.59c0-1.56.86-2.47,2-2.47s2,.91,2,2.47-.86,2.49-2,2.49S497.42,160.64,497.42,159.09Zm2.61,0c0-1.06-.28-1.35-.6-1.35s-.6.29-.6,1.35.29,1.36.6,1.36S500,160.14,500,159.09Z"/><path class="cls-9" d="M591,166.77a2,2,0,0,1,1.25-1.8v-.05a2.17,2.17,0,0,1-1-1.8c0-1.34,1.06-2.15,2.54-2.15a2.12,2.12,0,0,1,2.38,2.11,1.93,1.93,0,0,1-1,1.59v.05a2.19,2.19,0,0,1,1.31,2c0,1.23-1.12,2.14-2.79,2.14S591,168,591,166.77Zm3.59-.12c0-.55-.53-.77-1.43-1.15a1.62,1.62,0,0,0-.39,1,.9.9,0,0,0,1,.91A.73.73,0,0,0,594.63,166.65Zm-.09-3.43c0-.53-.28-.84-.76-.84a.66.66,0,0,0-.7.74c0,.51.41.77,1.13,1.06A1.69,1.69,0,0,0,594.54,163.22Z"/><path class="cls-9" d="M597.28,163.24c0-1.55.86-2.47,2-2.47s2,.92,2,2.47-.86,2.5-2,2.5S597.28,164.8,597.28,163.24Zm2.62,0c0-1.05-.29-1.34-.6-1.34s-.6.29-.6,1.34.28,1.37.6,1.37S599.9,164.3,599.9,163.24Zm3.86-2.47h1.15l-4.17,8.09h-1.16Zm-.6,5.59c0-1.56.86-2.47,2-2.47s2,.91,2,2.47-.87,2.5-2,2.5S603.16,167.92,603.16,166.36Zm2.61,0c0-1.05-.28-1.34-.6-1.34s-.6.29-.6,1.34.29,1.37.6,1.37S605.77,167.42,605.77,166.36Z"/><path class="cls-9" d="M565.68,153.79h1.63v-3.94h-1.44v-1.27a5.41,5.41,0,0,0,2-.74h1.51v5.95h1.37v1.65h-5.06Z"/><path class="cls-9" d="M571.85,154.63l1.08-1.23a1.68,1.68,0,0,0,1.15.53c.81,0,1.41-.6,1.41-2.42s-.59-2.28-1-2.28-.82.25-.82,1.05.41.92.84.92a1.16,1.16,0,0,0,1-.72l.09,1.29a2,2,0,0,1-1.51.87,2.13,2.13,0,0,1-2.3-2.36,2.51,2.51,0,0,1,2.64-2.59c1.46,0,3,1.06,3,3.82s-1.51,4.08-3.14,4.08A3.3,3.3,0,0,1,571.85,154.63Z"/><path class="cls-9" d="M578.11,150c0-1.56.86-2.47,2-2.47s2,.91,2,2.47-.86,2.5-2,2.5S578.11,151.53,578.11,150Zm2.62,0c0-1.05-.29-1.34-.6-1.34s-.6.29-.6,1.34.28,1.37.6,1.37S580.73,151,580.73,150Zm3.86-2.47h1.15l-4.18,8.09h-1.15Zm-.6,5.59c0-1.56.86-2.47,2-2.47s2,.91,2,2.47-.87,2.5-2,2.5S584,154.65,584,153.09Zm2.61,0c0-1.05-.29-1.34-.6-1.34s-.6.29-.6,1.34.29,1.37.6,1.37S586.6,154.15,586.6,153.09Z"/><line class="cls-12" x1="519.93" y1="149.49" x2="528.99" y2="140.42"/><line class="cls-12" x1="562.13" y1="151.92" x2="528.99" y2="140.42"/><line class="cls-12" x1="534.14" y1="165.84" x2="583.68" y2="165.84"/></g><g id="linkedln"><rect class="cls-4" x="400.08" y="181.65" width="29" height="24" rx="12"/><rect class="cls-5" x="432.57" y="181.65" width="33" height="24" rx="12"/><rect class="cls-6" x="467.19" y="181.65" width="24" height="24" rx="12"/><rect class="cls-3" x="494.04" y="181.65" width="9" height="24" rx="4.5"/><path class="cls-14" d="M376.44,182.09h-19a2.1,2.1,0,0,0-2.1,2.1v19a2.1,2.1,0,0,0,2.1,2.1h19a2.1,2.1,0,0,0,2.1-2.1v-19A2.1,2.1,0,0,0,376.44,182.09Zm-13.94,20a.61.61,0,0,1-.61.61h-2.6a.61.61,0,0,1-.61-.61V191.23a.61.61,0,0,1,.61-.61h2.6a.61.61,0,0,1,.61.61Zm-1.91-12.55a2.47,2.47,0,1,1,2.47-2.47A2.47,2.47,0,0,1,360.59,189.59Zm15.51,12.6a.56.56,0,0,1-.56.56h-2.79a.56.56,0,0,1-.56-.56v-5.12c0-.76.22-3.34-2-3.34-1.72,0-2.07,1.76-2.14,2.56v5.9a.56.56,0,0,1-.56.56h-2.7a.56.56,0,0,1-.56-.56v-11a.56.56,0,0,1,.56-.56h2.7a.56.56,0,0,1,.56.56v.95a3.85,3.85,0,0,1,3.61-1.69c4.47,0,4.44,4.17,4.44,6.47v5.28Z"/><path class="cls-9" d="M404.4,195.51c1.79-1.65,3.19-2.93,3.19-4a.89.89,0,0,0-.94-1,1.91,1.91,0,0,0-1.25.71l-1.1-1.1a3.28,3.28,0,0,1,2.64-1.22,2.42,2.42,0,0,1,2.61,2.49c0,1.23-1.15,2.57-2.18,3.62.38,0,.94-.09,1.27-.09h1.27v1.73H404.4Z"/><path class="cls-9" d="M410.92,195.87l1.08-1.22a1.74,1.74,0,0,0,1.15.52c.82,0,1.42-.6,1.42-2.42s-.59-2.28-1.06-2.28-.81.25-.81,1.06.41.91.84.91a1.14,1.14,0,0,0,1-.72l.09,1.3a2,2,0,0,1-1.51.86,2.13,2.13,0,0,1-2.3-2.35,2.51,2.51,0,0,1,2.64-2.59c1.46,0,3,1.05,3,3.81s-1.51,4.08-3.14,4.08A3.34,3.34,0,0,1,410.92,195.87Z"/><path class="cls-9" d="M417.19,191.22c0-1.56.86-2.47,2-2.47s2,.91,2,2.47-.87,2.49-2,2.49S417.19,192.78,417.19,191.22Zm2.61,0c0-1.06-.28-1.35-.6-1.35s-.6.29-.6,1.35.29,1.36.6,1.36S419.8,192.27,419.8,191.22Zm3.86-2.47h1.16l-4.18,8.08h-1.15Zm-.6,5.59c0-1.56.87-2.48,2-2.48s2,.92,2,2.48-.86,2.49-2,2.49S423.06,195.89,423.06,194.34Zm2.62,0c0-1.06-.29-1.35-.6-1.35s-.6.29-.6,1.35.29,1.36.6,1.36S425.68,195.39,425.68,194.34Z"/><path class="cls-9" d="M438.7,195.75l.94-1.3a2.37,2.37,0,0,0,1.56.72c.67,0,1.1-.24,1.1-.72s-.3-.91-1.89-.91V192.1c1.27,0,1.65-.33,1.65-.86s-.28-.69-.79-.69a2,2,0,0,0-1.34.62l-1-1.25a3.78,3.78,0,0,1,2.47-1c1.68,0,2.76.77,2.76,2.14a1.75,1.75,0,0,1-1.22,1.65v.05a1.84,1.84,0,0,1,1.46,1.82c0,1.44-1.36,2.23-2.95,2.23A3.42,3.42,0,0,1,438.7,195.75Z"/><path class="cls-9" d="M445.18,195.75l.94-1.3a2.37,2.37,0,0,0,1.56.72c.67,0,1.1-.24,1.1-.72s-.3-.91-1.89-.91V192.1c1.27,0,1.65-.33,1.65-.86s-.28-.69-.79-.69a2,2,0,0,0-1.35.62l-1-1.25a3.78,3.78,0,0,1,2.47-1c1.68,0,2.76.77,2.76,2.14a1.76,1.76,0,0,1-1.22,1.65v.05a1.84,1.84,0,0,1,1.46,1.82c0,1.44-1.36,2.23-2.95,2.23A3.42,3.42,0,0,1,445.18,195.75Z"/><path class="cls-9" d="M451.69,191.22c0-1.56.86-2.47,2-2.47s2,.91,2,2.47-.87,2.49-2,2.49S451.69,192.78,451.69,191.22Zm2.61,0c0-1.06-.29-1.35-.6-1.35s-.6.29-.6,1.35.29,1.36.6,1.36S454.3,192.27,454.3,191.22Zm3.86-2.47h1.15l-4.17,8.08H454Zm-.6,5.59c0-1.56.87-2.48,2-2.48s2,.92,2,2.48-.86,2.49-2,2.49S457.56,195.89,457.56,194.34Zm2.62,0c0-1.06-.29-1.35-.6-1.35s-.6.29-.6,1.35.29,1.36.6,1.36S460.18,195.39,460.18,194.34Z"/><path class="cls-9" d="M528,190.45c1.8-1.65,3.19-2.93,3.19-4a.89.89,0,0,0-.94-1,1.83,1.83,0,0,0-1.24.71l-1.11-1.1a3.28,3.28,0,0,1,2.64-1.22,2.42,2.42,0,0,1,2.61,2.49c0,1.23-1.15,2.57-2.18,3.62.39,0,.94-.09,1.27-.09h1.27v1.73H528Z"/><path class="cls-9" d="M537.48,187.5c0-.52,0-1.28.08-1.8h0c-.19.46-.41.91-.63,1.37l-.69,1.29h4v1.56h-6v-1.44l2.59-4.46h2.56v7.61h-1.92Z"/><path class="cls-9" d="M540.75,186.16c0-1.56.86-2.47,2-2.47s2,.91,2,2.47-.86,2.49-2,2.49S540.75,187.72,540.75,186.16Zm2.61,0c0-1.06-.28-1.35-.6-1.35s-.6.29-.6,1.35.29,1.36.6,1.36S543.36,187.21,543.36,186.16Zm3.87-2.47h1.15l-4.18,8.08h-1.15Zm-.6,5.59c0-1.56.86-2.48,2-2.48s2,.92,2,2.48-.87,2.49-2,2.49S546.63,190.83,546.63,189.28Zm2.61,0c0-1.06-.29-1.35-.6-1.35s-.6.29-.6,1.35.29,1.36.6,1.36S549.24,190.33,549.24,189.28Z"/><path class="cls-9" d="M553.77,203.43l1.08-1.23a1.7,1.7,0,0,0,1.15.53c.82,0,1.42-.6,1.42-2.42s-.59-2.28-1.06-2.28-.81.25-.81,1.06.4.91.84.91a1.12,1.12,0,0,0,1-.72l.1,1.29a2,2,0,0,1-1.51.87,2.13,2.13,0,0,1-2.3-2.35,2.5,2.5,0,0,1,2.63-2.59c1.47,0,3,1.05,3,3.81s-1.51,4.08-3.14,4.08A3.34,3.34,0,0,1,553.77,203.43Z"/><path class="cls-9" d="M560,198.77c0-1.55.86-2.47,2-2.47s2,.92,2,2.47-.87,2.5-2,2.5S560,200.33,560,198.77Zm2.61,0c0-1.05-.29-1.34-.6-1.34s-.6.29-.6,1.34.29,1.37.6,1.37S562.65,199.83,562.65,198.77Zm3.86-2.47h1.15l-4.17,8.09h-1.15Zm-.6,5.59c0-1.56.87-2.47,2-2.47s2,.91,2,2.47-.86,2.5-2,2.5S565.91,203.45,565.91,201.89Zm2.62,0c0-1-.29-1.34-.6-1.34s-.6.29-.6,1.34.29,1.37.6,1.37S568.53,203,568.53,201.89Z"/><line class="cls-12" x1="484.39" y1="185.24" x2="493.46" y2="176.17"/><line class="cls-12" x1="526.6" y1="187.67" x2="493.46" y2="176.17"/><line class="cls-12" x1="501.53" y1="201.66" x2="551.08" y2="201.66"/></g><g id="snapchat"><rect class="cls-2" x="399.66" y="217.64" width="69" height="24" rx="12"/><rect class="cls-3" x="581.98" y="217.64" width="3" height="24" rx="1.5"/><rect class="cls-5" x="538.56" y="217.59" width="26" height="24" rx="12"/><rect class="cls-6" x="566.56" y="217.59" width="10" height="24" rx="5"/><rect class="cls-4" x="469.37" y="217.64" width="68" height="24" rx="12"/><path class="cls-15" d="M379,236.15a5.69,5.69,0,0,1-5.67,5.67h-11.3a5.69,5.69,0,0,1-5.67-5.67V224.84a5.68,5.68,0,0,1,5.67-5.66h11.3a5.68,5.68,0,0,1,5.67,5.66Z"/><path class="cls-9" d="M367.66,224.05a4,4,0,0,0-2.43.79,3.86,3.86,0,0,0-1.18,1.56s0,0,0,0a4.76,4.76,0,0,0-.24,1.88h0a2.41,2.41,0,0,1,.07,1.24.26.26,0,0,0,0,.05,3,3,0,0,1-.6,0h0a1.94,1.94,0,0,1-.47-.17h0a.55.55,0,0,0-.45.09h0a.49.49,0,0,0-.25.38v0a.46.46,0,0,0,.16.26l.16.12h0a2,2,0,0,0,1,.38h0c.2.18.38.25.42.43a1,1,0,0,1-.18.76h0a4.59,4.59,0,0,1-1.45,1.67,3.84,3.84,0,0,1-1.07.49h0a.73.73,0,0,0-.38.21s0,0,0,0a.36.36,0,0,0,.05.31.37.37,0,0,0,.16.13h0a4.38,4.38,0,0,0,1,.34h0a4.25,4.25,0,0,1,.61.14.43.43,0,0,0,.08.17c.05.18.09.38.14.59a.21.21,0,0,0,.13.13.3.3,0,0,0,.23,0h0a3.76,3.76,0,0,1,1.56,0h0a5.82,5.82,0,0,1,1.45.8h0a2.55,2.55,0,0,0,1.25.43h0l0,0c.35,0,.64,0,1,0h0c.27-.19.55-.17.78-.31a0,0,0,0,1,0,0,17.43,17.43,0,0,1,1.52-.91h0a3.33,3.33,0,0,1,.62-.07h0a7.85,7.85,0,0,1,1.28.07h0a.19.19,0,0,0,.14-.07.11.11,0,0,0,0-.09s0-.07,0,0,0,0,0,0a1.65,1.65,0,0,1,.25-.64.33.33,0,0,1,.27-.07h0a4.15,4.15,0,0,0,1-.29h0a1,1,0,0,0,.42-.27h0a.29.29,0,0,0-.09-.42h-.09a1.63,1.63,0,0,0-.42-.16h0a3.8,3.8,0,0,1-1.83-1.34,5.22,5.22,0,0,1-.63-1.1h0a.56.56,0,0,1,0-.48h0a1.28,1.28,0,0,1,.63-.39h0a2.31,2.31,0,0,0,.85-.44h0s.05-.09.09-.16.15-.18,0-.29h0a.31.31,0,0,0-.23-.33h-.51a3.32,3.32,0,0,1-.45.13h0a1.67,1.67,0,0,1-.51-.05v-.13h0c0-.36-.05-.62-.05-1h0a11.6,11.6,0,0,0,0-1.56h0a3.51,3.51,0,0,0-1.44-2.19,6,6,0,0,0-1.78-.67h0Z"/><path class="cls-16" d="M373.36,242h-11.3a5.86,5.86,0,0,1-5.85-5.85V224.84a5.86,5.86,0,0,1,5.85-5.85h11.3a5.86,5.86,0,0,1,5.85,5.85v11.31A5.86,5.86,0,0,1,373.36,242Zm-11.3-22.64a5.5,5.5,0,0,0-5.49,5.48v11.31a5.5,5.5,0,0,0,5.49,5.48h11.3a5.49,5.49,0,0,0,5.49-5.48V224.84a5.49,5.49,0,0,0-5.49-5.48Z"/><path class="cls-16" d="M373,240.91h-10.5a5.23,5.23,0,0,1-5.16-5.16V225.24a5.22,5.22,0,0,1,5.16-5.16h10.47a.18.18,0,1,1,0,.36H362.46a4.85,4.85,0,0,0-4.8,4.8v10.51a4.87,4.87,0,0,0,4.8,4.8H373a4.87,4.87,0,0,0,4.8-4.8v-5.07a.17.17,0,0,1,.18-.18.18.18,0,0,1,.19.18v5.07A5.23,5.23,0,0,1,373,240.91Z"/><path class="cls-16" d="M376.44,222a.18.18,0,0,1-.13-.06,5.18,5.18,0,0,0-3.53-1.45.18.18,0,0,1,0-.36,5.54,5.54,0,0,1,3.79,1.56.18.18,0,0,1,0,.25A.14.14,0,0,1,376.44,222Z"/><path class="cls-16" d="M377.94,229.59a.17.17,0,0,1-.18-.18v-2.68a.17.17,0,0,1,.18-.18.18.18,0,0,1,.19.18v2.68A.18.18,0,0,1,377.94,229.59Z"/><path class="cls-16" d="M367.8,237.58h-.18a3.54,3.54,0,0,1-2.08-.8,2.63,2.63,0,0,0-.93-.49,2,2,0,0,0-.5,0,3,3,0,0,0-.69.08h0a2.08,2.08,0,0,1-.36,0,.55.55,0,0,1-.56-.42,1.92,1.92,0,0,1-.08-.3v0a.58.58,0,0,1,0-.18,5.11,5.11,0,0,1-1.34-.36,1.1,1.1,0,0,1-.58-.51v0a.65.65,0,0,1,0-.2.5.5,0,0,1,.44-.52,3,3,0,0,0,1.16-.46,3.7,3.7,0,0,0,.83-.72,4.44,4.44,0,0,0,.69-1.07v0h0a.54.54,0,0,0,.07-.33c-.07-.16-.45-.29-.65-.36l-.06,0-.18-.06a2.1,2.1,0,0,1-.6-.34.68.68,0,0,1-.25-.67.79.79,0,0,1,.4-.51,1,1,0,0,1,.85-.07,1.24,1.24,0,0,0,.56.15h0a.5.5,0,0,0,0-.17v0a7.1,7.1,0,0,1,.2-3,4.5,4.5,0,0,1,.9-1.3,3.86,3.86,0,0,1,1.09-.73,4.6,4.6,0,0,1,1.7-.36h.28a4.6,4.6,0,0,1,1.7.36,4,4,0,0,1,2,2,7.27,7.27,0,0,1,.2,3v.06a.27.27,0,0,1,0,.13h0a3.08,3.08,0,0,0,.52-.15.82.82,0,0,1,.36-.07.92.92,0,0,1,.38.07.79.79,0,0,1,.57.71.72.72,0,0,1-.22.52,1.75,1.75,0,0,1-.64.38l-.16.06h-.07c-.2.07-.58.18-.65.36s0,.18.05.34a.07.07,0,0,0,0,0,3.91,3.91,0,0,0,2.66,2.23.51.51,0,0,1,.44.54.71.71,0,0,1,0,.2,1,1,0,0,1-.58.51,5.11,5.11,0,0,1-1.34.36.48.48,0,0,0,0,.18v.09a.92.92,0,0,1-.08.25.52.52,0,0,1-.54.4l-.38,0a3.24,3.24,0,0,0-.71-.08,3.9,3.9,0,0,0-.5,0,2.47,2.47,0,0,0-.93.49A3.53,3.53,0,0,1,367.8,237.58Zm-3.69-1.69a2.53,2.53,0,0,1,.56.06,2.92,2.92,0,0,1,1.07.54,3.06,3.06,0,0,0,1.88.74h.16a3.1,3.1,0,0,0,1.87-.74,2.54,2.54,0,0,1,1.09-.54,2.67,2.67,0,0,1,.56-.06,3.21,3.21,0,0,1,.78.09,1,1,0,0,0,.29,0,.18.18,0,0,0,.19-.15c0-.09,0-.16.06-.23l0-.09c0-.16.07-.27.09-.35a.17.17,0,0,1,.14-.1,5.55,5.55,0,0,0,1.34-.35.68.68,0,0,0,.4-.32.15.15,0,0,0,0-.1.17.17,0,0,0-.13-.16,4.32,4.32,0,0,1-2.93-2.44s0,0,0,0a.73.73,0,0,1-.07-.63c.12-.33.58-.47.89-.56l.07,0a.41.41,0,0,1,.12,0,1.4,1.4,0,0,0,.51-.31.38.38,0,0,0,.13-.25c0-.15-.13-.29-.35-.36a.51.51,0,0,0-.25-.06.53.53,0,0,0-.22,0,1.56,1.56,0,0,1-.65.18h0a1.2,1.2,0,0,1-.26-.05.21.21,0,0,1-.11-.19v-.09a.79.79,0,0,1,0-.2v-.05a7,7,0,0,0-.16-2.77,4,4,0,0,0-.83-1.2,3.38,3.38,0,0,0-1-.65,3.83,3.83,0,0,0-1.56-.32h-.27a3.8,3.8,0,0,0-1.56.32,3.33,3.33,0,0,0-1,.65,3.86,3.86,0,0,0-.84,1.2,6.64,6.64,0,0,0-.16,2.79v0c0,.11,0,.21,0,.32a.19.19,0,0,1-.11.18,1.24,1.24,0,0,1-1-.12.6.6,0,0,0-.5,0,.38.38,0,0,0-.22.27.34.34,0,0,0,.15.33,1.85,1.85,0,0,0,.48.27l.15.06H363c.31.09.75.24.89.56a.71.71,0,0,1-.07.62v0a4.88,4.88,0,0,1-.74,1.16,3.72,3.72,0,0,1-.91.79,3.59,3.59,0,0,1-1.29.51.15.15,0,0,0-.12.16.18.18,0,0,0,0,.1h0a.76.76,0,0,0,.39.3,4.68,4.68,0,0,0,1.36.35.13.13,0,0,1,.13.09,1.94,1.94,0,0,1,.11.34l0,.06a1.21,1.21,0,0,0,.07.29c0,.1.09.14.22.14a1.45,1.45,0,0,0,.29,0h0A7.43,7.43,0,0,1,364.11,235.89Z"/><path class="cls-9" d="M425.86,230c0-2.76,1.51-4.08,3.14-4.08a3.3,3.3,0,0,1,2.37,1l-1.08,1.22a1.74,1.74,0,0,0-1.15-.52c-.8,0-1.41.6-1.41,2.42s.58,2.28,1,2.28.82-.25.82-1.06-.41-.91-.84-.91a1.14,1.14,0,0,0-1,.72l-.09-1.29a2,2,0,0,1,1.51-.87,2.13,2.13,0,0,1,2.3,2.35,2.51,2.51,0,0,1-2.64,2.59C427.37,233.79,425.86,232.74,425.86,230Z"/><path class="cls-9" d="M432.36,232.83l1.08-1.22a1.75,1.75,0,0,0,1.15.53c.82,0,1.42-.6,1.42-2.42s-.59-2.28-1.06-2.28-.81.25-.81,1.05.4.91.84.91a1.13,1.13,0,0,0,1-.72l.1,1.3a2,2,0,0,1-1.51.86,2.13,2.13,0,0,1-2.31-2.35,2.51,2.51,0,0,1,2.64-2.59c1.47,0,3,1.06,3,3.82s-1.51,4.07-3.15,4.07A3.27,3.27,0,0,1,432.36,232.83Z"/><path class="cls-9" d="M438.62,228.18c0-1.56.87-2.47,2-2.47s2,.91,2,2.47-.86,2.49-2,2.49S438.62,229.74,438.62,228.18Zm2.62,0c0-1.06-.29-1.34-.6-1.34s-.6.28-.6,1.34.29,1.37.6,1.37S441.24,229.24,441.24,228.18Zm3.86-2.47h1.15l-4.17,8.08h-1.15Zm-.6,5.59c0-1.56.86-2.47,2-2.47s2,.91,2,2.47-.86,2.49-2,2.49S444.5,232.86,444.5,231.3Zm2.62,0c0-1.06-.29-1.34-.6-1.34s-.6.28-.6,1.34.28,1.37.6,1.37S447.12,232.35,447.12,231.3Z"/><path class="cls-9" d="M498.06,230c0-2.76,1.52-4.08,3.15-4.08a3.3,3.3,0,0,1,2.37,1l-1.08,1.22a1.74,1.74,0,0,0-1.15-.52c-.8,0-1.41.6-1.41,2.42s.58,2.28,1.05,2.28.82-.25.82-1.06-.41-.91-.84-.91a1.14,1.14,0,0,0-1,.72l-.1-1.29a2,2,0,0,1,1.51-.87,2.13,2.13,0,0,1,2.31,2.35,2.51,2.51,0,0,1-2.64,2.59C499.58,233.79,498.06,232.74,498.06,230Z"/><path class="cls-9" d="M504.59,231.71a2,2,0,0,1,1.25-1.8v0a2.2,2.2,0,0,1-1-1.8c0-1.34,1.06-2.16,2.54-2.16a2.12,2.12,0,0,1,2.38,2.11,1.93,1.93,0,0,1-1,1.6v0a2.17,2.17,0,0,1,1.31,2c0,1.22-1.12,2.13-2.79,2.13S504.59,233,504.59,231.71Zm3.59-.12c0-.56-.53-.77-1.43-1.16a1.65,1.65,0,0,0-.4,1,.91.91,0,0,0,1,.91A.74.74,0,0,0,508.18,231.59Zm-.09-3.43c0-.53-.28-.84-.76-.84a.66.66,0,0,0-.7.74c0,.5.41.77,1.13,1.06A1.74,1.74,0,0,0,508.09,228.16Z"/><path class="cls-9" d="M510.83,228.18c0-1.56.87-2.47,2-2.47s2,.91,2,2.47-.86,2.49-2,2.49S510.83,229.74,510.83,228.18Zm2.62,0c0-1.06-.29-1.34-.6-1.34s-.6.28-.6,1.34.29,1.37.6,1.37S513.45,229.24,513.45,228.18Zm3.86-2.47h1.15l-4.17,8.08h-1.15Zm-.6,5.59c0-1.56.86-2.47,2-2.47s2,.91,2,2.47-.86,2.49-2,2.49S516.71,232.86,516.71,231.3Zm2.61,0c0-1.06-.28-1.34-.6-1.34s-.6.28-.6,1.34.29,1.37.6,1.37S519.32,232.35,519.32,231.3Z"/><path class="cls-9" d="M607.42,220.42c1.8-1.66,3.19-2.93,3.19-4a.89.89,0,0,0-.94-1,1.84,1.84,0,0,0-1.24.72l-1.11-1.1a3.28,3.28,0,0,1,2.64-1.22,2.42,2.42,0,0,1,2.61,2.49c0,1.22-1.15,2.57-2.18,3.62a11.83,11.83,0,0,1,1.27-.09h1.27v1.72h-5.51Z"/><path class="cls-9" d="M613.92,217.92c0-2.75,1.51-4.07,3.14-4.07a3.3,3.3,0,0,1,2.38,1L618.36,216a1.75,1.75,0,0,0-1.15-.53c-.81,0-1.42.6-1.42,2.42s.59,2.28,1.06,2.28.81-.25.81-1-.4-.91-.84-.91a1.12,1.12,0,0,0-1,.72l-.1-1.3a2,2,0,0,1,1.51-.86,2.13,2.13,0,0,1,2.3,2.35,2.51,2.51,0,0,1-2.64,2.59C615.43,221.74,613.92,220.68,613.92,217.92Z"/><path class="cls-9" d="M620.21,216.13c0-1.56.86-2.48,2-2.48s2,.92,2,2.48-.86,2.49-2,2.49S620.21,217.68,620.21,216.13Zm2.61,0c0-1.06-.28-1.35-.6-1.35s-.6.29-.6,1.35.29,1.36.6,1.36S622.82,217.18,622.82,216.13Zm3.87-2.48h1.15l-4.18,8.09h-1.15Zm-.6,5.59c0-1.56.86-2.47,2-2.47s2,.91,2,2.47-.87,2.5-2,2.5S626.09,220.8,626.09,219.24Zm2.61,0c0-1.05-.29-1.34-.6-1.34s-.6.29-.6,1.34.29,1.37.6,1.37S628.7,220.3,628.7,219.24Z"/><path class="cls-9" d="M615.85,245.21l.94-1.29a2.42,2.42,0,0,0,1.56.72c.67,0,1.1-.24,1.1-.72s-.3-.92-1.89-.92v-1.43c1.27,0,1.65-.34,1.65-.87s-.28-.69-.79-.69a2,2,0,0,0-1.35.62l-1-1.25a3.78,3.78,0,0,1,2.47-1c1.68,0,2.76.77,2.76,2.15a1.76,1.76,0,0,1-1.22,1.64v.05a1.84,1.84,0,0,1,1.46,1.82c0,1.44-1.37,2.23-3,2.23A3.42,3.42,0,0,1,615.85,245.21Z"/><path class="cls-9" d="M622.35,240.68c0-1.56.87-2.47,2-2.47s2,.91,2,2.47-.87,2.49-2,2.49S622.35,242.24,622.35,240.68Zm2.62,0c0-1.06-.29-1.35-.6-1.35s-.6.29-.6,1.35.29,1.37.6,1.37S625,241.73,625,240.68Zm3.86-2.47H630l-4.17,8.08h-1.15Zm-.6,5.59c0-1.56.87-2.47,2-2.47s2,.91,2,2.47-.86,2.49-2,2.49S628.23,245.36,628.23,243.8Zm2.62,0c0-1.06-.29-1.35-.6-1.35s-.6.29-.6,1.35.28,1.36.6,1.36S630.85,244.85,630.85,243.8Z"/><path class="cls-9" d="M637.65,234.42h1.63v-3.93h-1.44v-1.28a5.24,5.24,0,0,0,2-.74h1.51v5.95h1.37v1.65h-5.06Z"/><path class="cls-9" d="M643.74,232.24c0-2.61,1.16-3.91,2.83-3.91s2.83,1.32,2.83,3.91-1.15,4-2.83,4S643.74,234.84,643.74,232.24Zm3.72,0c0-2-.41-2.33-.89-2.33s-.88.31-.88,2.33.41,2.39.88,2.39S647.46,234.25,647.46,232.24Z"/><path class="cls-9" d="M650.08,230.61c0-1.56.86-2.48,2-2.48s2,.92,2,2.48-.86,2.49-2,2.49S650.08,232.16,650.08,230.61Zm2.62,0c0-1.06-.29-1.35-.6-1.35s-.6.29-.6,1.35.28,1.36.6,1.36S652.7,231.66,652.7,230.61Zm3.86-2.48h1.15l-4.18,8.09h-1.15Zm-.6,5.59c0-1.56.86-2.47,2-2.47s2,.91,2,2.47-.87,2.5-2,2.5S656,235.28,656,233.72Zm2.61,0c0-1.05-.29-1.34-.6-1.34s-.6.29-.6,1.34.29,1.37.6,1.37S658.57,234.78,658.57,233.72Z"/><line class="cls-12" x1="559.05" y1="219.17" x2="568.12" y2="210.11"/><line class="cls-12" x1="601.25" y1="221.61" x2="568.12" y2="210.11"/><line class="cls-12" x1="585.19" y1="232.59" x2="634.73" y2="232.59"/><line class="cls-12" x1="570.84" y1="238.82" x2="579.91" y2="247.89"/><line class="cls-12" x1="615.61" y1="246.15" x2="579.91" y2="247.89"/></g><text class="cls-17" transform="translate(28.53 105.99)">USE OF SOCIAL MEDIA <tspan class="cls-18" x="278.11" y="0">B</tspan><tspan x="294.04" y="0">Y </tspan><tspan x="47.94" y="28.8">ALL </tspan><tspan class="cls-19" x="99.73" y="28.8">A</tspan><tspan x="117.3" y="28.8">GED IN 2019</tspan></text></g></g></svg>